<?xml version="1.0" standalone="no"?>
<!DOCTYPE svg PUBLIC "-//W3C//DTD SVG 20010904//EN"
 "http://www.w3.org/TR/2001/REC-SVG-20010904/DTD/svg10.dtd">
<svg version="1.0" xmlns="http://www.w3.org/2000/svg"
 width="780.000000pt" height="780.000000pt" viewBox="0 0 780.000000 780.000000"
 preserveAspectRatio="xMidYMid meet">
<metadata>
Created by potrace 1.11, written by Peter Selinger 2001-2013
</metadata>
<g transform="translate(0.000000,780.000000) scale(0.100000,-0.100000)"
fill="#000000" stroke="none">
<path d="M4847 7763 c-3 -10 -6 -40 -6 -67 -1 -54 -28 -123 -60 -155 -20 -20
-27 -49 -22 -95 2 -29 6 -30 51 -12 109 44 218 8 363 -119 87 -76 163 -182
203 -285 9 -25 21 -50 26 -56 25 -34 49 -196 53 -359 6 -252 -16 -365 -151
-787 -51 -162 -77 -227 -148 -368 -81 -162 -162 -300 -217 -371 -51 -64 -67
-79 -134 -123 -87 -58 -97 -80 -69 -151 24 -64 142 -183 257 -258 228 -150
439 -202 491 -122 16 24 15 26 -17 62 -57 65 -75 97 -95 169 -19 70 -20 102
-7 184 9 57 55 230 90 340 85 265 192 655 221 804 2 11 6 32 9 46 16 82 20
145 20 315 0 372 -29 536 -134 745 -76 153 -162 268 -275 367 -65 56 -140 113
-151 113 -13 0 -158 100 -213 146 -69 59 -78 63 -85 37z"/>
<path d="M3397 5408 c-138 -16 -363 -80 -470 -134 -277 -140 -780 -676 -1098
-1169 -142 -220 -219 -384 -315 -670 -91 -275 -139 -450 -190 -699 -45 -221
-59 -380 -59 -676 0 -324 10 -433 60 -700 2 -14 30 -146 60 -295 31 -148 58
-279 60 -290 3 -11 20 -74 39 -140 54 -191 114 -329 169 -389 75 -80 390 -175
639 -191 69 -4 149 -9 348 -20 90 -5 205 -14 280 -21 156 -15 379 1 570 41 14
3 41 8 60 11 132 22 460 202 783 431 127 89 318 233 337 253 3 3 39 28 80 55
41 28 79 53 85 58 5 4 105 71 220 150 116 78 237 162 270 187 95 69 248 183
270 202 338 277 439 382 631 653 235 332 264 390 299 605 43 265 40 462 -11
702 -47 222 -138 439 -234 559 -42 52 -148 149 -163 149 -3 0 -23 12 -44 26
-93 63 -259 118 -388 128 -44 4 -91 9 -105 12 -14 2 -40 6 -57 8 -98 13 -290
58 -388 93 -208 73 -317 158 -560 433 -227 259 -374 397 -509 481 -207 127
-444 183 -669 157z m186 -486 c31 -11 85 -42 119 -68 263 -201 360 -263 580
-368 318 -152 667 -281 898 -331 8 -2 42 -11 75 -19 33 -9 74 -19 90 -21 56
-10 160 -47 229 -81 201 -101 308 -257 360 -524 24 -118 16 -384 -14 -475 -76
-237 -295 -578 -625 -975 -71 -85 -134 -160 -140 -166 -5 -6 -40 -44 -76 -85
-37 -41 -79 -87 -94 -104 -50 -55 -281 -289 -346 -350 -203 -191 -503 -396
-884 -605 -98 -53 -175 -95 -260 -141 -44 -23 -174 -95 -290 -159 -284 -157
-359 -190 -465 -206 -19 -3 -41 -7 -49 -10 -17 -6 -198 -6 -226 0 -79 16 -252
48 -287 52 -24 3 -61 15 -83 26 -156 78 -374 445 -411 692 -3 22 -7 43 -9 46
-2 4 -7 36 -10 72 -4 35 -8 78 -11 94 -6 43 -6 399 0 447 3 23 8 74 11 112 3
39 10 97 15 130 25 170 25 172 46 275 63 312 172 623 305 871 73 136 146 243
261 381 174 211 268 368 493 819 81 162 163 321 183 354 129 212 239 316 355
331 23 4 43 7 45 9 11 10 167 -7 215 -23z"/>
</g>
</svg>
