<?xml version="1.0" encoding="UTF-8"?>
<svg width="929px" height="141px" viewBox="0 0 929 141" version="1.1" xmlns="http://www.w3.org/2000/svg" xmlns:xlink="http://www.w3.org/1999/xlink">
    <!-- Generator: Sketch 55.2 (78181) - https://sketchapp.com -->
    <title>Kabanero-full logo</title>
    <desc>Created with Sketch.</desc>
    <g id="Page-1" stroke="none" stroke-width="1" fill="none" fill-rule="evenodd">
        <g id="Kabanero-full-logo" fill="#FFFFFF">
            <path d="M62.0699697,52.08 C62.0699697,50.5 63.98,51.32 66.58,47.38 C68.4692224,44.4562911 70.0955858,41.3708855 71.44,38.16 C72.7616702,34.4607536 73.8668731,30.6877046 74.75,26.86 C75.3591267,23.5544943 75.3591267,20.1655057 74.75,16.86 C74.1912423,14.3782243 73.1181389,12.0412435 71.6,10 C70.6011365,8.94386272 69.4914004,7.99840778 68.29,7.18 C67.4623473,6.51061595 66.4242003,6.15629958 65.36,6.18 C64.4961399,6.169236 63.6434034,6.37554321 62.88,6.78 C62.7,6.78 62.55,6.18 62.73,5.27 C62.91,4.36 63.37,4.83 63.96,3.27 C64.55,1.71 63.9,0.37 64.53,0.41 C65.16,0.45 64.53,0.41 66.64,2.02 C68.75,3.63 69.76,3.73 71.73,5.43 C73.8052774,7.11491378 75.5079133,9.2125613 76.73,11.59 C78.2785587,14.2736056 79.16954,17.2858077 79.33,20.38 C79.5739884,22.507453 79.6708852,24.6492064 79.62,26.79 C79.4299244,30.6289158 78.7579894,34.4287082 77.62,38.1 L75.75,44.51 C74.8846414,46.8722684 74.1829816,49.2913239 73.65,51.75 C73.31,53.82 73.11,54.13 73.79,56.27 C74.47,58.41 75.85,58.99 75.85,59.43 C75.85,59.87 75,61.08 72.28,60.25 C70.2757768,59.7094055 68.3855093,58.8116978 66.7,57.6 C64.53,56.2 62.06,53.66 62.0699697,52.08 Z" id="Path" fill-rule="nonzero"></path>
            <path d="M88.1,67.24 L88.1,67.24 C92.7,70.78 95.45,81.46 94.54,88.56 C93.63,95.66 93.64,95.43 87.38,104.24 C81.12,113.05 63.75,123.24 60.7,125.75 C56.5222878,129.133312 52.0778009,132.17322 47.41,134.84 C42.91,137.28 43.32,137.27 37.84,138.13 C32.36,138.99 31.84,138.48 24.7,138.13 C17.56,137.78 17.15,137.75 14.21,137.13 C11.27,136.51 8.42,135.52 7.43,134.34 C6.44,133.16 4.77,130.15 3.03,121.24 C1.29,112.3 0.71,111.39 0.54,102.69 C0.37,93.99 2.22,85.51 6,74.75 C9.78,63.99 21.52,51.58 25.83,48 C30.14,44.42 32.31,43.85 37,42.82 C42.5119627,41.7402896 48.2165831,43.2105526 52.52,46.82 C57.58,50.82 60.89,56.41 65.02,59.41 C67.7733333,61.41 72.2366667,62.79 78.41,63.55 C81.9533479,63.6860821 85.3555271,64.9746267 88.1,67.22 L88.1,67.24 Z M70.7,65 C67.52,64.35 62.97,63 55.22,59.49 C42.63,53.75 44.93,50.34 37.78,50.89 C30.27,51.46 27.72,67.7 18.78,77.89 C8.1,90 5.63,113 8.51,122.76 C8.62,123.13 8.72,123.47 8.8,123.76 C10.51,128.28 13.8,133.3 16.45,133.57 C20.97,134.04 25.04,136.57 32.76,132.02 C41.34,127.02 52.97,121.91 60.76,114.53 C69,106.68 83.24,90.37 83.87,82.6 C85.2,65.71 73.2,66 70.7,65 Z" id="Shape" fill-rule="nonzero"></path>
            <path d="M126.333846,137.19 C125.462319,136.34812 124.980462,135.181518 125.003846,133.97 L125.003846,10.36 C124.95352,9.10162768 125.39873,7.87370932 126.243846,6.94 C127.107166,6.03898405 128.317234,5.55422805 129.563846,5.61 L146.673846,5.61 C147.949542,5.55231666 149.190545,6.03455986 150.092568,6.93848566 C150.994591,7.84241146 151.474218,9.08442866 151.413846,10.36 L151.413846,54.79 L193.733846,9 C195.534433,6.76563375 198.275362,5.50058946 201.143846,5.58 L220.513846,5.58 C221.543043,5.59203664 222.52799,6.00034224 223.263846,6.72 C224.06955,7.44538256 224.518726,8.48615489 224.493846,9.57 C224.510363,10.4294875 224.165763,11.2565268 223.543846,11.85 L171.903846,69.22 L227.343846,132.07 C227.807583,132.809595 228.069604,133.657715 228.103846,134.53 C228.132952,135.596529 227.72046,136.62776 226.963846,137.38 C226.273539,138.112297 225.310204,138.525154 224.303846,138.52 L204.373846,138.52 C201.713846,138.52 199.813846,137.99 198.673846,136.91 L196.773846,135.1 L151.393846,85 L151.393846,134 C151.416229,135.209347 150.938652,136.374346 150.073846,137.22 C149.165683,138.115447 147.92837,138.596624 146.653846,138.55 L129.563846,138.55 C128.344828,138.565938 127.174323,138.073094 126.333846,137.19 Z" id="Path" fill-rule="nonzero"></path>
            <path d="M245.093846,136.53 C240.01037,134.18574 235.626112,130.55632 232.373846,126 C224.37189,114.551241 226.938797,98.8128615 238.163846,90.5 C245.123846,85.1666667 254.680513,81.5566667 266.833846,79.67 L292.833846,75.88 L292.833846,71.88 C292.833846,66.44 291.443846,62.3266667 288.663846,59.54 C285.883846,56.7533333 281.453846,55.36 275.373846,55.36 C271.193846,55.36 267.837179,56.12 265.303846,57.64 C263.068969,58.9382006 260.99756,60.4993104 259.133846,62.29 C257.553846,63.87 256.513846,64.92 256.003846,65.42 C255.71813,66.7617892 254.525627,67.7157921 253.153846,67.7 L238.353846,67.7 C237.262599,67.7183904 236.207438,67.3092462 235.413846,66.56 C234.589004,65.7851312 234.140362,64.6908824 234.183846,63.56 C234.303846,60.4 235.853846,56.8266667 238.833846,52.84 C241.813846,48.8533333 246.400513,45.37 252.593846,42.39 C258.793846,39.4233333 266.460513,37.9366667 275.593846,37.93 C290.520513,37.93 301.403846,41.2833333 308.243846,47.99 C315.083846,54.6966667 318.503846,63.4966667 318.503846,74.39 L318.503846,134 C318.531484,135.194887 318.085781,136.352278 317.263846,137.22 C316.402791,138.124366 315.191132,138.609759 313.943846,138.55 L298.163846,138.55 C296.954566,138.55533 295.793132,138.07799 294.937096,137.223831 C294.08106,136.369672 293.60117,135.209288 293.603846,134 L293.603846,126.59 C290.584093,130.860277 286.535851,134.299734 281.833846,136.59 C276.773846,139.183333 270.440513,140.48 262.833846,140.48 C256.697296,140.527427 250.630542,139.1766 245.093846,136.53 Z M286.393846,115.36 C290.820513,110.8 293.037179,104.216667 293.043846,95.61 L293.043846,91.81 L274.043846,94.81 C259.483846,97.09 252.203846,101.963333 252.203846,109.43 C252.068145,113.232355 253.975023,116.817285 257.203846,118.83 C260.802731,121.114756 265.00269,122.270964 269.263846,122.15 C276.250513,122.176667 281.960513,119.913333 286.393846,115.36 Z" id="Shape" fill-rule="nonzero"></path>
            <path d="M356.673846,126.94 L356.673846,133.94 C356.692419,135.150606 356.211321,136.31537 355.343846,137.16 C354.435683,138.055447 353.19837,138.536624 351.923846,138.49 L336.743846,138.49 C335.534566,138.49533 334.373132,138.01799 333.517096,137.163831 C332.66106,136.309672 332.181682,135.149288 332.183846,133.94 L332.183846,8.27 C332.145096,7.04101601 332.62828,5.85303893 333.513846,5 C334.389126,4.18481208 335.548043,3.74349053 336.743846,3.77 L353.263846,3.77 C354.496898,3.67983638 355.708297,4.12980969 356.583484,5.003077 C357.458671,5.87634432 357.911302,7.08675276 357.823846,8.32 L357.823846,50.42 C364.903846,42.0666667 374.587179,37.89 386.873846,37.89 C399.653846,37.89 409.493846,42.0366667 416.393846,50.33 C423.293846,58.6233333 426.933846,69.4766667 427.313846,82.89 C427.433846,84.41 427.503846,86.5 427.503846,89.16 C427.503846,91.82 427.433846,93.78 427.313846,95.42 C426.807179,109.093333 423.140513,120.01 416.313846,128.17 C409.487179,136.33 399.673846,140.413333 386.873846,140.42 C373.700513,140.42 363.633846,135.926667 356.673846,126.94 Z M401.293846,94.85 C401.413846,93.59 401.483846,91.69 401.483846,89.16 C401.483846,86.63 401.413846,84.73 401.293846,83.46 C400.413846,66.7533333 393.207179,58.4 379.673846,58.4 C372.713846,58.4 367.380513,60.6133333 363.673846,65.04 C359.953003,69.6047807 357.881256,75.2915149 357.793846,81.18 C357.667179,82.7 357.603846,85.17 357.603846,88.59 C357.603846,91.8766667 357.667179,94.28 357.793846,95.8 C357.856417,101.951567 359.846446,107.928648 363.483846,112.89 C367.023846,117.556667 372.403846,119.890016 379.623846,119.890016 C393.183846,119.903333 400.410513,111.556667 401.303846,94.85 L401.293846,94.85 Z" id="Shape" fill-rule="nonzero"></path>
            <path d="M451.033846,136.53 C445.95037,134.18574 441.566112,130.55632 438.313846,126 C430.31189,114.551241 432.878797,98.8128615 444.103846,90.5 C451.063846,85.1666667 460.620513,81.5566667 472.773846,79.67 L498.773846,75.88 L498.773846,71.88 C498.773846,66.44 497.380513,62.3266667 494.593846,59.54 C491.807179,56.7533333 487.377179,55.36 481.303846,55.36 C477.123846,55.36 473.770513,56.12 471.243846,57.64 C469.004291,58.9357547 466.929291,60.4970417 465.063846,62.29 C463.483846,63.87 462.443846,64.92 461.933846,65.42 C461.651677,66.7639744 460.45698,67.7197316 459.083846,67.7 L444.293846,67.7 C443.202789,67.7173266 442.148014,67.3083324 441.353846,66.56 C440.532311,65.7828591 440.084312,64.6901791 440.123846,63.56 C440.243846,60.4 441.793846,56.8266667 444.773846,52.84 C447.753846,48.8533333 452.340513,45.37 458.533846,42.39 C464.740513,39.4233333 472.407179,37.9366667 481.533846,37.93 C496.467179,37.93 507.353846,41.2833333 514.193846,47.99 C521.033846,54.6966667 524.450513,63.4966667 524.443846,74.39 L524.443846,134 C524.471484,135.194887 524.025781,136.352278 523.203846,137.22 C522.342791,138.124366 521.131132,138.609759 519.883846,138.55 L504.103846,138.55 C502.896297,138.552663 501.737438,138.074144 500.88357,137.220276 C500.029702,136.366407 499.551183,135.207549 499.553846,134 L499.553846,126.59 C496.530343,130.860688 492.478783,134.300042 487.773846,136.59 C482.713846,139.183333 476.380513,140.48 468.773846,140.48 C462.637296,140.527427 456.570542,139.1766 451.033846,136.53 L451.033846,136.53 Z M492.333846,115.36 C496.767179,110.8 498.983846,104.216667 498.983846,95.61 L498.983846,91.81 L479.983846,94.81 C465.423846,97.09 458.143846,101.963333 458.143846,109.43 C458.006053,113.232837 459.913454,116.818751 463.143846,118.83 C466.738631,121.115654 470.9357,122.272025 475.193846,122.15 C482.180513,122.176667 487.893846,119.913333 492.333846,115.36 Z" id="Shape" fill-rule="nonzero"></path>
            <path d="M539.673846,137.19 C538.80904,136.344346 538.331462,135.179347 538.353846,133.97 L538.353846,44.35 C538.285334,43.0944428 538.767271,41.871344 539.673846,41 C540.546396,40.1793301 541.706278,39.7340502 542.903846,39.76 L558.673846,39.76 C559.907877,39.6729123 561.119023,40.1252985 561.993785,41.0000605 C562.868547,41.8748225 563.320934,43.0859688 563.233846,44.32 L563.233846,52.1 C570.927179,42.6333333 581.483846,37.8966667 594.903846,37.89 C606.543846,37.89 615.783846,41.6866667 622.623846,49.28 C629.463846,56.8733333 632.880513,67.3166667 632.873846,80.61 L632.873846,134 C632.901484,135.194887 632.455781,136.352278 631.633846,137.22 C630.772791,138.124366 629.561132,138.609759 628.313846,138.55 L611.233846,138.55 C610.024566,138.554934 608.863132,138.07799 608.007096,137.223831 C607.15106,136.369672 606.67117,135.209288 606.673846,134 L606.673846,81.75 C606.673846,74.4166667 604.870513,68.69 601.263846,64.57 C597.657179,60.45 592.497179,58.3933333 585.783846,58.4 C579.330513,58.4 574.140513,60.4866667 570.213846,64.66 C566.287179,68.8333333 564.327179,74.53 564.333846,81.75 L564.333846,134 C564.361484,135.194887 563.915781,136.352278 563.093846,137.22 C562.232791,138.124366 561.021132,138.609759 559.773846,138.55 L542.873846,138.55 C541.665701,138.554934 540.508561,138.063437 539.673846,137.19 L539.673846,137.19 Z" id="Path" fill-rule="nonzero"></path>
            <path d="M657.303846,128.27 C649.017179,120.17 644.620513,108.65 644.113846,93.71 L643.923846,88.97 C643.923846,73.1366667 648.070513,60.6666667 656.363846,51.56 C664.657179,42.4533333 676.143846,37.8966667 690.823846,37.89 C705.883846,37.89 717.497179,42.4466667 725.663846,51.56 C733.830513,60.6733333 737.910513,72.82 737.90477,88 L737.90477,92 C737.928811,93.2147419 737.446923,94.3850402 736.573846,95.23 C735.670756,96.1269648 734.435754,96.6086516 733.163846,96.56 L670.163846,96.56 L670.163846,98.08 C670.417179,105.173333 672.347179,111.026667 675.953846,115.64 C679.560513,120.253333 684.530513,122.563333 690.863846,122.57 C697.815714,122.698622 704.39711,119.443348 708.513846,113.84 C709.238096,112.832561 710.139407,111.965134 711.173846,111.28 C712.204125,110.892116 713.305295,110.728474 714.403846,110.8 L731.073846,110.8 C732.133017,110.775509 733.169276,111.110355 734.013846,111.75 C734.834725,112.382603 735.297137,113.374551 735.253846,114.41 C735.253846,117.45 733.450513,121.026667 729.843846,125.14 C726.237179,129.253333 721.077179,132.826667 714.363846,135.86 C707.650513,138.9 699.867179,140.42 691.013846,140.42 C676.833846,140.42 665.597179,136.37 657.303846,128.27 Z M711.673846,80.42 L711.673846,80 C711.673846,72.54 709.807179,66.56 706.073846,62.06 C702.340513,57.56 697.247179,55.3133333 690.793846,55.3199852 C684.333846,55.3199852 679.270513,57.5666667 675.603846,62.06 C671.937179,66.5533333 670.110513,72.5333333 670.123773,80 L670.123773,80.38 L711.673846,80.42 Z" id="Shape" fill-rule="nonzero"></path>
            <path d="M754.473846,137.19 C753.602319,136.34812 753.120462,135.181518 753.143846,133.97 L753.143846,44.54 C753.097222,43.2654762 753.578399,42.028163 754.473846,41.12 C755.315008,40.2595706 756.47061,39.7793936 757.673846,39.79 L773.273846,39.79 C774.549513,39.7356413 775.789536,40.2186073 776.692387,41.1214587 C777.595239,42.0243102 778.078205,43.2643329 778.023846,44.54 L778.023846,52.32 C784.343846,43.9733333 793.457179,39.7966667 805.363846,39.79 L813.363846,39.79 C814.597877,39.7029123 815.809023,40.1552985 816.683785,41.0300605 C817.558547,41.9048225 818.010934,43.1159688 817.923846,44.35 L817.923846,58.21 C817.947103,59.4089689 817.49816,60.5690383 816.673846,61.44 C815.810525,62.341016 814.600458,62.825772 813.353846,62.77 L798.353846,62.77 C792.407179,62.77 787.740513,64.4766667 784.353846,67.89 C780.967179,71.3033333 779.260513,75.97 779.233846,81.89 L779.233846,133.89 C779.236521,135.099288 778.756632,136.259672 777.900596,137.113831 C777.04456,137.96799 775.883125,138.44533 774.673846,138.44 L757.673846,138.44 C756.481462,138.476498 755.325778,138.025059 754.473846,137.19 L754.473846,137.19 Z" id="Path" fill-rule="nonzero"></path>
            <path d="M837.113846,129 C829.013846,121.4 824.647179,110.893333 824.013846,97.48 L823.823846,89.13 L824.013846,80.77 C824.647179,67.4833333 829.077179,57.01 837.303846,49.35 C845.530513,41.69 856.987179,37.87 871.673846,37.8899219 C886.220513,37.8899219 897.610513,41.72 905.843846,49.38 C914.077179,57.04 918.510513,67.5133333 919.143846,80.8 C919.263846,82.32 919.323846,85.1066667 919.323846,89.16 C919.323846,93.2133333 919.263846,95.9966667 919.143846,97.51 C918.477179,110.93 914.107179,121.436667 906.033846,129.03 C897.960513,136.623333 886.507179,140.42 871.673846,140.42 C856.733846,140.42 845.213846,136.613333 837.113846,129 Z M887.113846,114.95 C890.720513,110.77 892.650513,104.63 892.903846,96.53 C893.030513,95.27 893.093846,92.8033333 893.093846,89.13 C893.093846,85.4566667 893.030513,82.9866667 892.903846,81.72 C892.657179,73.62 890.697179,67.45 887.023846,63.21 C883.350513,58.97 878.233846,56.86 871.673846,56.8798592 C864.960513,56.8798592 859.770513,59 856.103846,63.24 C852.437179,67.48 850.473846,73.65 850.213846,81.75 L850.023846,89.16 L850.213846,96.56 C850.473846,104.66 852.437179,110.8 856.103846,114.98 C859.770513,119.16 864.960513,121.246667 871.673846,121.240016 C878.387179,121.240016 883.543846,119.16 887.143846,115 L887.113846,114.95 Z" id="Shape" fill-rule="nonzero"></path>
            <text id="TM" font-family="Rubik-Medium, Rubik Medium" font-size="14" font-weight="normal">
                <tspan x="910" y="17">TM</tspan>
            </text>
        </g>
    </g>
</svg>