<?xml version="1.0" encoding="UTF-8"?>
<svg width="177px" height="260px" viewBox="0 0 177 260" version="1.1" xmlns="http://www.w3.org/2000/svg" xmlns:xlink="http://www.w3.org/1999/xlink">
    <!-- Generator: Sketch 54.1 (76490) - https://sketchapp.com -->
    <title>Group 11</title>
    <desc>Created with Sketch.</desc>
    <defs>
        <linearGradient x1="0%" y1="63.599142%" x2="100%" y2="38.4045204%" id="linearGradient-1">
            <stop stop-color="#FAA229" offset="0%"></stop>
            <stop stop-color="#C43804" offset="100%"></stop>
        </linearGradient>
    </defs>
    <g id="Page-1" stroke="none" stroke-width="1" fill="none" fill-rule="evenodd">
        <g id="Artboard" transform="translate(-945.000000, -185.000000)">
            <g id="Group-14" transform="translate(878.000000, 68.000000)">
                <g id="Group-13">
                    <g id="Group-11" transform="translate(153.500000, 262.562225) rotate(-40.000000) translate(-153.500000, -262.562225) translate(29.000000, 172.562225)">
                        <path d="M177.73108,72.0023458 C179.652378,69.749609 181.387754,73.2287708 189.865557,70.6981802 C195.517425,69.0111198 201.551493,66.547054 207.967759,63.3059829 C216.666706,58.0032399 222.789552,53.9216061 226.336298,51.0610815 C231.656417,46.7702946 235.629251,41.5940086 238.430194,36.7216001 C240.29749,33.4733277 241.509869,28.9388497 242.06733,23.118166 C241.777699,19.6337585 241.330769,16.9526189 240.72654,15.0747472 C239.820197,12.2579397 239.558849,11.9346055 237.6995,10.1389908 C235.840151,8.34337601 233.653323,8.21834741 233.406574,8.00569252 C233.159824,7.79303763 233.656671,6.76082411 235.014165,5.67139068 C236.37166,4.58195725 236.466569,5.80605474 239.217228,4.22766971 C241.967887,2.64928469 242.634476,-0.0055366923 243.485914,0.810125842 C244.337352,1.62578838 243.53101,0.831644635 244.580401,5.67139068 C245.629792,10.5111367 246.995372,11.8754436 247.785941,16.7000083 C248.57651,21.524573 248.871027,24.7989001 247.572151,31.6022877 C246.273274,38.4056752 243.904697,42.9995167 240.72654,47.3544982 C237.548383,51.7094797 238.493495,50.9687991 233.424248,56.9125322 C230.04475,60.875021 224.52411,65.470237 216.862328,70.6981802 L206.451728,77.6442826 C200.61464,81.187078 196.70049,83.8106289 194.709277,85.5149355 C191.722458,88.0713954 191.072155,88.2826194 189.466667,92.1820315 C187.861178,96.0814436 189.13954,98.5740968 188.612493,99.1920639 C188.085446,99.810031 185.399904,100.548351 182.494811,96.0830702 C179.589718,91.6177895 179.174879,90.1396774 177.73108,85.5149355 C176.287281,80.8901937 175.809783,74.2550826 177.73108,72.0023458 Z" id="Path-5" fill="#292828"></path>
                        <path d="M196.844692,125.135773 C196.845435,125.137686 196.845959,125.139334 196.846263,125.140718 C199.179534,135.777375 190.251736,154.42655 180.395341,163.529525 C170.538946,172.632501 170.819276,172.300714 151.216752,177.414484 C131.614227,182.528253 94.3500155,176.27771 86.9884766,176.160822 C79.6269377,176.043934 66.3335318,175.117887 56.9376267,173.193941 C47.5417217,171.269995 48.1486403,171.747386 39.2292444,166.381436 C30.3098485,161.015487 30.2624266,159.710822 20.4267007,150.486015 C10.5909749,141.261207 10.0385359,140.831042 6.60421657,136.360778 C3.16989726,131.890514 0.221245074,127.067976 0.221245074,124.185687 C0.221245074,121.307482 1.4507243,114.959599 9.6931846,100.067921 C9.70492003,100.035439 9.71664135,100.008533 9.72831496,99.987459 C18.0024139,85.0503572 18.2634978,83.0541513 28.5084958,70.3523983 C38.7534939,57.6506453 51.4864722,47.8876234 69.9149665,37.0300645 C88.3434607,26.1725057 120.087478,22.4230092 130.643482,22.4230092 C141.199486,22.4230092 144.898694,24.3295401 152.877316,28.4870491 C160.855938,32.6445581 167.922357,41.0552138 170.328969,52.9384158 C172.735581,64.8216178 170.792426,76.7989703 173.104189,86.0896233 C174.645365,92.283392 179.393327,99.6415561 187.348077,108.164116 C192.124686,112.379401 195.290748,118.032597 196.846263,125.123701 C196.846818,125.126233 196.846285,125.130271 196.844692,125.135773 Z M174.620221,100.893111 C170.836432,96.1271884 165.879112,88.7375169 159.013493,74.3186887 C147.862805,50.9005743 155.259939,48.781434 144.336702,40.9488237 C132.870852,32.7271271 109.641344,52.9664614 84.5254196,56.7959205 C54.579641,61.3617939 23.2546242,91.4916313 15.6490536,108.966685 C15.3589978,109.633136 15.0813706,110.237651 14.8156872,110.783909 C11.8324888,119.34352 10.5741278,130.559724 13.9865018,134.087933 C19.9052946,140.207643 22.7588222,148.700211 39.2815469,151.518697 C57.6391127,154.650174 80.4901868,161.359708 100.521606,160.104368 C121.820214,158.769615 161.923018,152.495882 172.188685,142.088267 C194.516864,119.451346 176.956841,105.383003 174.620221,100.893111 Z" id="Combined-Shape" fill="url(#linearGradient-1)"></path>
                    </g>
                </g>
            </g>
        </g>
    </g>
</svg>