<?xml version="1.0" encoding="UTF-8"?>
<svg width="929px" height="141px" viewBox="0 0 929 141" version="1.1" xmlns="http://www.w3.org/2000/svg" xmlns:xlink="http://www.w3.org/1999/xlink">
    <!-- Generator: Sketch 55.2 (78181) - https://sketchapp.com -->
    <title>Kabanero-full logo</title>
    <desc>Created with Sketch.</desc>
    <defs>
        <linearGradient x1="10.5883503%" y1="97.1026549%" x2="79.2453757%" y2="8.45328292%" id="linearGradient-1">
            <stop stop-color="#FAA229" offset="0%"></stop>
            <stop stop-color="#C43804" offset="100%"></stop>
        </linearGradient>
    </defs>
    <g id="Page-1" stroke="none" stroke-width="1" fill="none" fill-rule="evenodd">
        <g id="Kabanero-full-logo">
            <path d="M62.0699697,52.08 C62.0699697,50.5 63.98,51.32 66.58,47.38 C68.4692224,44.4562911 70.0955858,41.3708855 71.44,38.16 C72.7616702,34.4607536 73.8668731,30.6877046 74.75,26.86 C75.3591267,23.5544943 75.3591267,20.1655057 74.75,16.86 C74.1912423,14.3782243 73.1181389,12.0412435 71.6,10 C70.6011365,8.94386272 69.4914004,7.99840778 68.29,7.18 C67.4623473,6.51061595 66.4242003,6.15629958 65.36,6.18 C64.4961399,6.169236 63.6434034,6.37554321 62.88,6.78 C62.7,6.78 62.55,6.18 62.73,5.27 C62.91,4.36 63.37,4.83 63.96,3.27 C64.55,1.71 63.9,0.37 64.53,0.41 C65.16,0.45 64.53,0.41 66.64,2.02 C68.75,3.63 69.76,3.73 71.73,5.43 C73.8052774,7.11491378 75.5079133,9.2125613 76.73,11.59 C78.2785587,14.2736056 79.16954,17.2858077 79.33,20.38 C79.5739884,22.507453 79.6708852,24.6492064 79.62,26.79 C79.4299244,30.6289158 78.7579894,34.4287082 77.62,38.1 L75.75,44.51 C74.8846414,46.8722684 74.1829816,49.2913239 73.65,51.75 C73.31,53.82 73.11,54.13 73.79,56.27 C74.47,58.41 75.85,58.99 75.85,59.43 C75.85,59.87 75,61.08 72.28,60.25 C70.2757768,59.7094055 68.3855093,58.8116978 66.7,57.6 C64.53,56.2 62.06,53.66 62.0699697,52.08 Z" id="Path" fill="#292828" fill-rule="nonzero"></path>
            <path d="M88.1,67.24 L88.1,67.24 C92.7,70.78 95.45,81.46 94.54,88.56 C93.63,95.66 93.64,95.43 87.38,104.24 C81.12,113.05 63.75,123.24 60.7,125.75 C56.5222878,129.133312 52.0778009,132.17322 47.41,134.84 C42.91,137.28 43.32,137.27 37.84,138.13 C32.36,138.99 31.84,138.48 24.7,138.13 C17.56,137.78 17.15,137.75 14.21,137.13 C11.27,136.51 8.42,135.52 7.43,134.34 C6.44,133.16 4.77,130.15 3.03,121.24 C1.29,112.3 0.71,111.39 0.54,102.69 C0.37,93.99 2.22,85.51 6,74.75 C9.78,63.99 21.52,51.58 25.83,48 C30.14,44.42 32.31,43.85 37,42.82 C42.5119627,41.7402896 48.2165831,43.2105526 52.52,46.82 C57.58,50.82 60.89,56.41 65.02,59.41 C67.7733333,61.41 72.2366667,62.79 78.41,63.55 C81.9533479,63.6860821 85.3555271,64.9746267 88.1,67.22 L88.1,67.24 Z M70.7,65 C67.52,64.35 62.97,63 55.22,59.49 C42.63,53.75 44.93,50.34 37.78,50.89 C30.27,51.46 27.72,67.7 18.78,77.89 C8.1,90 5.63,113 8.51,122.76 C8.62,123.13 8.72,123.47 8.8,123.76 C10.51,128.28 13.8,133.3 16.45,133.57 C20.97,134.04 25.04,136.57 32.76,132.02 C41.34,127.02 52.97,121.91 60.76,114.53 C69,106.68 83.24,90.37 83.87,82.6 C85.2,65.71 73.2,66 70.7,65 Z" id="Shape" fill="url(#linearGradient-1)" fill-rule="nonzero"></path>
            <path d="M125.333846,137.19 C124.462319,136.34812 123.980462,135.181518 124.003846,133.97 L124.003846,10.36 C123.95352,9.10162768 124.39873,7.87370932 125.243846,6.94 C126.107166,6.03898405 127.317234,5.55422805 128.563846,5.61 L145.673846,5.61 C146.949542,5.55231666 148.190545,6.03455986 149.092568,6.93848566 C149.994591,7.84241146 150.474218,9.08442866 150.413846,10.36 L150.413846,54.79 L192.733846,9 C194.534433,6.76563375 197.275362,5.50058946 200.143846,5.58 L219.513846,5.58 C220.543043,5.59203664 221.52799,6.00034224 222.263846,6.72 C223.06955,7.44538256 223.518726,8.48615489 223.493846,9.57 C223.510363,10.4294875 223.165763,11.2565268 222.543846,11.85 L170.903846,69.22 L226.343846,132.07 C226.807583,132.809595 227.069604,133.657715 227.103846,134.53 C227.132952,135.596529 226.72046,136.62776 225.963846,137.38 C225.273539,138.112297 224.310204,138.525154 223.303846,138.52 L203.373846,138.52 C200.713846,138.52 198.813846,137.99 197.673846,136.91 L195.773846,135.1 L150.393846,85 L150.393846,134 C150.416229,135.209347 149.938652,136.374346 149.073846,137.22 C148.165683,138.115447 146.92837,138.596624 145.653846,138.55 L128.563846,138.55 C127.344828,138.565938 126.174323,138.073094 125.333846,137.19 Z" id="Path" fill="#000000" fill-rule="nonzero"></path>
            <path d="M244.093846,136.53 C239.01037,134.18574 234.626112,130.55632 231.373846,126 C223.37189,114.551241 225.938797,98.8128615 237.163846,90.5 C244.123846,85.1666667 253.680513,81.5566667 265.833846,79.67 L291.833846,75.88 L291.833846,71.88 C291.833846,66.44 290.443846,62.3266667 287.663846,59.54 C284.883846,56.7533333 280.453846,55.36 274.373846,55.36 C270.193846,55.36 266.837179,56.12 264.303846,57.64 C262.068969,58.9382006 259.99756,60.4993104 258.133846,62.29 C256.553846,63.87 255.513846,64.92 255.003846,65.42 C254.71813,66.7617892 253.525627,67.7157921 252.153846,67.7 L237.353846,67.7 C236.262599,67.7183904 235.207438,67.3092462 234.413846,66.56 C233.589004,65.7851312 233.140362,64.6908824 233.183846,63.56 C233.303846,60.4 234.853846,56.8266667 237.833846,52.84 C240.813846,48.8533333 245.400513,45.37 251.593846,42.39 C257.793846,39.4233333 265.460513,37.9366667 274.593846,37.93 C289.520513,37.93 300.403846,41.2833333 307.243846,47.99 C314.083846,54.6966667 317.503846,63.4966667 317.503846,74.39 L317.503846,134 C317.531484,135.194887 317.085781,136.352278 316.263846,137.22 C315.402791,138.124366 314.191132,138.609759 312.943846,138.55 L297.163846,138.55 C295.954566,138.55533 294.793132,138.07799 293.937096,137.223831 C293.08106,136.369672 292.60117,135.209288 292.603846,134 L292.603846,126.59 C289.584093,130.860277 285.535851,134.299734 280.833846,136.59 C275.773846,139.183333 269.440513,140.48 261.833846,140.48 C255.697296,140.527427 249.630542,139.1766 244.093846,136.53 Z M285.393846,115.36 C289.820513,110.8 292.037179,104.216667 292.043846,95.61 L292.043846,91.81 L273.043846,94.81 C258.483846,97.09 251.203846,101.963333 251.203846,109.43 C251.068145,113.232355 252.975023,116.817285 256.203846,118.83 C259.802731,121.114756 264.00269,122.270964 268.263846,122.15 C275.250513,122.176667 280.960513,119.913333 285.393846,115.36 Z" id="Shape" fill="#000000" fill-rule="nonzero"></path>
            <path d="M355.673846,126.94 L355.673846,133.94 C355.692419,135.150606 355.211321,136.31537 354.343846,137.16 C353.435683,138.055447 352.19837,138.536624 350.923846,138.49 L335.743846,138.49 C334.534566,138.49533 333.373132,138.01799 332.517096,137.163831 C331.66106,136.309672 331.181682,135.149288 331.183846,133.94 L331.183846,8.27 C331.145096,7.04101601 331.62828,5.85303893 332.513846,5 C333.389126,4.18481208 334.548043,3.74349053 335.743846,3.77 L352.263846,3.77 C353.496898,3.67983638 354.708297,4.12980969 355.583484,5.003077 C356.458671,5.87634432 356.911302,7.08675276 356.823846,8.32 L356.823846,50.42 C363.903846,42.0666667 373.587179,37.89 385.873846,37.89 C398.653846,37.89 408.493846,42.0366667 415.393846,50.33 C422.293846,58.6233333 425.933846,69.4766667 426.313846,82.89 C426.433846,84.41 426.503846,86.5 426.503846,89.16 C426.503846,91.82 426.433846,93.78 426.313846,95.42 C425.807179,109.093333 422.140513,120.01 415.313846,128.17 C408.487179,136.33 398.673846,140.413333 385.873846,140.42 C372.700513,140.42 362.633846,135.926667 355.673846,126.94 Z M400.293846,94.85 C400.413846,93.59 400.483846,91.69 400.483846,89.16 C400.483846,86.63 400.413846,84.73 400.293846,83.46 C399.413846,66.7533333 392.207179,58.4 378.673846,58.4 C371.713846,58.4 366.380513,60.6133333 362.673846,65.04 C358.953003,69.6047807 356.881256,75.2915149 356.793846,81.18 C356.667179,82.7 356.603846,85.17 356.603846,88.59 C356.603846,91.8766667 356.667179,94.28 356.793846,95.8 C356.856417,101.951567 358.846446,107.928648 362.483846,112.89 C366.023846,117.556667 371.403846,119.890016 378.623846,119.890016 C392.183846,119.903333 399.410513,111.556667 400.303846,94.85 L400.293846,94.85 Z" id="Shape" fill="#000000" fill-rule="nonzero"></path>
            <path d="M450.033846,136.53 C444.95037,134.18574 440.566112,130.55632 437.313846,126 C429.31189,114.551241 431.878797,98.8128615 443.103846,90.5 C450.063846,85.1666667 459.620513,81.5566667 471.773846,79.67 L497.773846,75.88 L497.773846,71.88 C497.773846,66.44 496.380513,62.3266667 493.593846,59.54 C490.807179,56.7533333 486.377179,55.36 480.303846,55.36 C476.123846,55.36 472.770513,56.12 470.243846,57.64 C468.004291,58.9357547 465.929291,60.4970417 464.063846,62.29 C462.483846,63.87 461.443846,64.92 460.933846,65.42 C460.651677,66.7639744 459.45698,67.7197316 458.083846,67.7 L443.293846,67.7 C442.202789,67.7173266 441.148014,67.3083324 440.353846,66.56 C439.532311,65.7828591 439.084312,64.6901791 439.123846,63.56 C439.243846,60.4 440.793846,56.8266667 443.773846,52.84 C446.753846,48.8533333 451.340513,45.37 457.533846,42.39 C463.740513,39.4233333 471.407179,37.9366667 480.533846,37.93 C495.467179,37.93 506.353846,41.2833333 513.193846,47.99 C520.033846,54.6966667 523.450513,63.4966667 523.443846,74.39 L523.443846,134 C523.471484,135.194887 523.025781,136.352278 522.203846,137.22 C521.342791,138.124366 520.131132,138.609759 518.883846,138.55 L503.103846,138.55 C501.896297,138.552663 500.737438,138.074144 499.88357,137.220276 C499.029702,136.366407 498.551183,135.207549 498.553846,134 L498.553846,126.59 C495.530343,130.860688 491.478783,134.300042 486.773846,136.59 C481.713846,139.183333 475.380513,140.48 467.773846,140.48 C461.637296,140.527427 455.570542,139.1766 450.033846,136.53 L450.033846,136.53 Z M491.333846,115.36 C495.767179,110.8 497.983846,104.216667 497.983846,95.61 L497.983846,91.81 L478.983846,94.81 C464.423846,97.09 457.143846,101.963333 457.143846,109.43 C457.006053,113.232837 458.913454,116.818751 462.143846,118.83 C465.738631,121.115654 469.9357,122.272025 474.193846,122.15 C481.180513,122.176667 486.893846,119.913333 491.333846,115.36 Z" id="Shape" fill="#000000" fill-rule="nonzero"></path>
            <path d="M538.673846,137.19 C537.80904,136.344346 537.331462,135.179347 537.353846,133.97 L537.353846,44.35 C537.285334,43.0944428 537.767271,41.871344 538.673846,41 C539.546396,40.1793301 540.706278,39.7340502 541.903846,39.76 L557.673846,39.76 C558.907877,39.6729123 560.119023,40.1252985 560.993785,41.0000605 C561.868547,41.8748225 562.320934,43.0859688 562.233846,44.32 L562.233846,52.1 C569.927179,42.6333333 580.483846,37.8966667 593.903846,37.89 C605.543846,37.89 614.783846,41.6866667 621.623846,49.28 C628.463846,56.8733333 631.880513,67.3166667 631.873846,80.61 L631.873846,134 C631.901484,135.194887 631.455781,136.352278 630.633846,137.22 C629.772791,138.124366 628.561132,138.609759 627.313846,138.55 L610.233846,138.55 C609.024566,138.554934 607.863132,138.07799 607.007096,137.223831 C606.15106,136.369672 605.67117,135.209288 605.673846,134 L605.673846,81.75 C605.673846,74.4166667 603.870513,68.69 600.263846,64.57 C596.657179,60.45 591.497179,58.3933333 584.783846,58.4 C578.330513,58.4 573.140513,60.4866667 569.213846,64.66 C565.287179,68.8333333 563.327179,74.53 563.333846,81.75 L563.333846,134 C563.361484,135.194887 562.915781,136.352278 562.093846,137.22 C561.232791,138.124366 560.021132,138.609759 558.773846,138.55 L541.873846,138.55 C540.665701,138.554934 539.508561,138.063437 538.673846,137.19 L538.673846,137.19 Z" id="Path" fill="#000000" fill-rule="nonzero"></path>
            <path d="M656.303846,128.27 C648.017179,120.17 643.620513,108.65 643.113846,93.71 L642.923846,88.97 C642.923846,73.1366667 647.070513,60.6666667 655.363846,51.56 C663.657179,42.4533333 675.143846,37.8966667 689.823846,37.89 C704.883846,37.89 716.497179,42.4466667 724.663846,51.56 C732.830513,60.6733333 736.910513,72.82 736.90477,88 L736.90477,92 C736.928811,93.2147419 736.446923,94.3850402 735.573846,95.23 C734.670756,96.1269648 733.435754,96.6086516 732.163846,96.56 L669.163846,96.56 L669.163846,98.08 C669.417179,105.173333 671.347179,111.026667 674.953846,115.64 C678.560513,120.253333 683.530513,122.563333 689.863846,122.57 C696.815714,122.698622 703.39711,119.443348 707.513846,113.84 C708.238096,112.832561 709.139407,111.965134 710.173846,111.28 C711.204125,110.892116 712.305295,110.728474 713.403846,110.8 L730.073846,110.8 C731.133017,110.775509 732.169276,111.110355 733.013846,111.75 C733.834725,112.382603 734.297137,113.374551 734.253846,114.41 C734.253846,117.45 732.450513,121.026667 728.843846,125.14 C725.237179,129.253333 720.077179,132.826667 713.363846,135.86 C706.650513,138.9 698.867179,140.42 690.013846,140.42 C675.833846,140.42 664.597179,136.37 656.303846,128.27 Z M710.673846,80.42 L710.673846,80 C710.673846,72.54 708.807179,66.56 705.073846,62.06 C701.340513,57.56 696.247179,55.3133333 689.793846,55.3199852 C683.333846,55.3199852 678.270513,57.5666667 674.603846,62.06 C670.937179,66.5533333 669.110513,72.5333333 669.123773,80 L669.123773,80.38 L710.673846,80.42 Z" id="Shape" fill="#000000" fill-rule="nonzero"></path>
            <path d="M753.473846,137.19 C752.602319,136.34812 752.120462,135.181518 752.143846,133.97 L752.143846,44.54 C752.097222,43.2654762 752.578399,42.028163 753.473846,41.12 C754.315008,40.2595706 755.47061,39.7793936 756.673846,39.79 L772.273846,39.79 C773.549513,39.7356413 774.789536,40.2186073 775.692387,41.1214587 C776.595239,42.0243102 777.078205,43.2643329 777.023846,44.54 L777.023846,52.32 C783.343846,43.9733333 792.457179,39.7966667 804.363846,39.79 L812.363846,39.79 C813.597877,39.7029123 814.809023,40.1552985 815.683785,41.0300605 C816.558547,41.9048225 817.010934,43.1159688 816.923846,44.35 L816.923846,58.21 C816.947103,59.4089689 816.49816,60.5690383 815.673846,61.44 C814.810525,62.341016 813.600458,62.825772 812.353846,62.77 L797.353846,62.77 C791.407179,62.77 786.740513,64.4766667 783.353846,67.89 C779.967179,71.3033333 778.260513,75.97 778.233846,81.89 L778.233846,133.89 C778.236521,135.099288 777.756632,136.259672 776.900596,137.113831 C776.04456,137.96799 774.883125,138.44533 773.673846,138.44 L756.673846,138.44 C755.481462,138.476498 754.325778,138.025059 753.473846,137.19 L753.473846,137.19 Z" id="Path" fill="#000000" fill-rule="nonzero"></path>
            <path d="M836.113846,129 C828.013846,121.4 823.647179,110.893333 823.013846,97.48 L822.823846,89.13 L823.013846,80.77 C823.647179,67.4833333 828.077179,57.01 836.303846,49.35 C844.530513,41.69 855.987179,37.87 870.673846,37.8899219 C885.220513,37.8899219 896.610513,41.72 904.843846,49.38 C913.077179,57.04 917.510513,67.5133333 918.143846,80.8 C918.263846,82.32 918.323846,85.1066667 918.323846,89.16 C918.323846,93.2133333 918.263846,95.9966667 918.143846,97.51 C917.477179,110.93 913.107179,121.436667 905.033846,129.03 C896.960513,136.623333 885.507179,140.42 870.673846,140.42 C855.733846,140.42 844.213846,136.613333 836.113846,129 Z M886.113846,114.95 C889.720513,110.77 891.650513,104.63 891.903846,96.53 C892.030513,95.27 892.093846,92.8033333 892.093846,89.13 C892.093846,85.4566667 892.030513,82.9866667 891.903846,81.72 C891.657179,73.62 889.697179,67.45 886.023846,63.21 C882.350513,58.97 877.233846,56.86 870.673846,56.8798592 C863.960513,56.8798592 858.770513,59 855.103846,63.24 C851.437179,67.48 849.473846,73.65 849.213846,81.75 L849.023846,89.16 L849.213846,96.56 C849.473846,104.66 851.437179,110.8 855.103846,114.98 C858.770513,119.16 863.960513,121.246667 870.673846,121.240016 C877.387179,121.240016 882.543846,119.16 886.143846,115 L886.113846,114.95 Z" id="Shape" fill="#000000" fill-rule="nonzero"></path>
            <text id="TM" font-family="Rubik-Medium, Rubik Medium" font-size="14" font-weight="normal" fill="#000000">
                <tspan x="910" y="17">TM</tspan>
            </text>
        </g>
    </g>
</svg>