<?xml version="1.0" encoding="UTF-8"?>
<svg width="30px" height="30px" viewBox="0 0 30 30" version="1.1" xmlns="http://www.w3.org/2000/svg" xmlns:xlink="http://www.w3.org/1999/xlink">
    <!-- Generator: Sketch 54.1 (76490) - https://sketchapp.com -->
    <title>Combined Shape</title>
    <desc>Created with Sketch.</desc>
    <g id="Page-1" stroke="none" stroke-width="1" fill="none" fill-rule="evenodd">
        <g id="Artboard" transform="translate(-1297.000000, -3845.000000)" fill="#C43804">
            <path d="M1312,3875 C1303.71573,3875 1297,3868.28427 1297,3860 C1297,3851.71573 1303.71573,3845 1312,3845 C1320.28427,3845 1327,3851.71573 1327,3860 C1327,3868.28427 1320.28427,3875 1312,3875 Z M1309.33701,3860.99948 L1309,3860.9984 L1309,3861.0016 L1309.3389,3861.0016 C1309.56831,3861.25866 1309.70753,3861.59464 1309.70753,3861.96157 C1309.70753,3862.76834 1309.03696,3863.4231 1308.21406,3863.4231 C1307.39116,3863.4231 1306.7206,3862.76834 1306.7206,3861.96157 C1306.7206,3861.15626 1307.39116,3860.50004 1308.21406,3860.50004 C1308.66098,3860.50004 1309.06297,3860.6936 1309.33701,3860.99948 Z M1315,3860.9984 L1315,3861.0016 L1316,3861.0016 L1315,3860.9984 Z M1324,3859.76927 C1324,3858.1572 1322.66036,3856.8462 1321.01307,3856.8462 C1320.35445,3856.8462 1319.72869,3857.05666 1319.21792,3857.43812 C1317.55121,3856.30544 1315.36777,3855.63021 1313.04543,3855.45921 L1314.29844,3852.58291 L1317.944,3853.41599 C1318.06049,3854.51944 1319.00436,3855.38467 1320.16179,3855.38467 C1321.39689,3855.38467 1322.40199,3854.40106 1322.40199,3853.19237 C1322.40199,3851.98368 1321.39689,3851.00007 1320.16179,3851.00007 C1319.37922,3851.00007 1318.69073,3851.39615 1318.29048,3851.99391 L1314.02962,3851.01907 C1313.6682,3850.93869 1313.31425,3851.11846 1313.17088,3851.44438 L1311.43846,3855.41975 C1308.93093,3855.50452 1306.54138,3856.19582 1304.73727,3857.40012 C1304.24592,3857.04351 1303.63659,3856.8462 1302.98693,3856.8462 C1301.33964,3856.8462 1300,3858.1572 1300,3859.76927 C1300,3860.83765 1300.59589,3861.80372 1301.50989,3862.29918 C1301.49795,3862.4278 1301.49347,3862.55934 1301.49347,3862.69234 C1301.49347,3866.72178 1306.18295,3870 1311.94773,3870 C1317.71101,3870 1322.40199,3866.72178 1322.40199,3862.69234 C1322.40199,3862.57834 1322.39751,3862.4658 1322.39004,3862.35326 C1323.36378,3861.86803 1324,3860.87857 1324,3859.76927 Z M1320.16179,3852.4616 C1320.5725,3852.4616 1320.90853,3852.78899 1320.90853,3853.19237 C1320.90853,3853.59575 1320.5725,3853.92314 1320.16179,3853.92314 C1319.75109,3853.92314 1319.41506,3853.59575 1319.41506,3853.19237 C1319.41506,3852.78899 1319.75109,3852.4616 1320.16179,3852.4616 Z M1315.39614,3866.80947 C1314.36565,3867.53878 1313.15594,3867.90416 1311.94773,3867.90416 C1310.73951,3867.90416 1309.52981,3867.53878 1308.49932,3866.80947 C1308.16478,3866.57271 1308.09011,3866.11525 1308.33205,3865.78932 C1308.57399,3865.4634 1309.04144,3865.39033 1309.37449,3865.62563 C1310.91425,3866.71447 1312.98121,3866.7174 1314.52097,3865.62563 C1314.85401,3865.39033 1315.31998,3865.46048 1315.56341,3865.78932 C1315.80535,3866.11671 1315.72918,3866.57271 1315.39614,3866.80947 Z M1315.68139,3863.4231 C1314.857,3863.4231 1314.18793,3862.76834 1314.18793,3861.96157 C1314.18793,3861.15626 1314.857,3860.50004 1315.68139,3860.50004 C1316.50579,3860.50004 1317.17486,3861.15626 1317.17486,3861.96157 C1317.17486,3862.76834 1316.50579,3863.4231 1315.68139,3863.4231 Z" id="Combined-Shape"></path>
        </g>
    </g>
</svg>